<svg xmlns="http://www.w3.org/2000/svg" viewBox="0 0 900 620" width="900" height="620"><g stroke="#000" fill="none"><path d="M-20,40 Q30.5,52.4 75.4,78.6" stroke-width="18" fill="none" stroke-linecap="round"/><path d="M75.4,78.6 Q117.5,87.7 160.5,86.5" stroke-width="13.9" fill="none" stroke-linecap="round"/><path d="M160.5,86.5 Q201,69.9 235.8,43.5" stroke-width="10.2" fill="none" stroke-linecap="round"/><path d="M235.8,43.5 Q267.7,24.6 301.9,10.1" stroke-width="7.5" fill="none" stroke-linecap="round"/><path d="M301.9,10.1 Q323.9,-6.2 342.7,-26.2" stroke-width="5.6" fill="none" stroke-linecap="round"/><path d="M342.7,-26.2 Q354.8,-60.4 374.8,-90.8" stroke-width="3.8" fill="none" stroke-linecap="round"/><path d="M374.8,-90.8 Q392.1,-118.8 415.5,-142" stroke-width="2.5" fill="none" stroke-linecap="round"/><path d="M342.7,-26.2 Q368.5,-30.1 392.1,-41.2" stroke-width="3.9" fill="none" stroke-linecap="round"/><path d="M392.1,-41.2 Q411.6,-63.1 438.8,-74" stroke-width="2.9" fill="none" stroke-linecap="round"/><path d="M160.5,86.5 Q192.9,112.6 233.8,120.4" stroke-width="9.7" fill="none" stroke-linecap="round"/><path d="M233.8,120.4 Q274.8,129.8 316.8,128.5" stroke-width="6.5" fill="none" stroke-linecap="round"/><path d="M316.8,128.5 Q351.6,123.6 378.5,101" stroke-width="5.1" fill="none" stroke-linecap="round"/><path d="M378.5,101 Q418.6,96.1 456.7,82.4" stroke-width="3.7" fill="none" stroke-linecap="round"/><path d="M456.7,82.4 Q472.7,66.1 495.1,61.3" stroke-width="2.7" fill="none" stroke-linecap="round"/><path d="M456.7,82.4 Q488.7,84 517.7,97.5" stroke-width="2.9" fill="none" stroke-linecap="round"/><path d="M316.8,128.5 Q348.2,161.6 389.4,180.8" stroke-width="4.9" fill="none" stroke-linecap="round"/><path d="M389.4,180.8 Q424.6,180.7 453.3,201.1" stroke-width="3.5" fill="none" stroke-linecap="round"/><path d="M453.3,201.1 Q471.9,216 493.4,226" stroke-width="2.3" fill="none" stroke-linecap="round"/><path d="M389.4,180.8 Q410.1,211.1 420.4,246.2" stroke-width="3.8" fill="none" stroke-linecap="round"/><path d="M420.4,246.2 Q444.1,256.7 462.7,274.9" stroke-width="2.8" fill="none" stroke-linecap="round"/><path d="M420.4,246.2 Q420.9,274.8 415.4,302.8" stroke-width="2.8" fill="none" stroke-linecap="round"/><path d="M75.4,78.6 Q97.4,115.1 130.5,142" stroke-width="13.8" fill="none" stroke-linecap="round"/><path d="M130.5,142 Q181.5,155.4 226.3,183.2" stroke-width="10.7" fill="none" stroke-linecap="round"/><path d="M226.3,183.2 Q263.5,193.3 302,193.5" stroke-width="8" fill="none" stroke-linecap="round"/><path d="M302,193.5 Q331.3,183.8 362.1,184.5" stroke-width="6.2" fill="none" stroke-linecap="round"/><path d="M362.1,184.5 Q384.1,169.2 399.9,147.5" stroke-width="4.7" fill="none" stroke-linecap="round"/><path d="M399.9,147.5 Q417.4,117.8 421.2,83.6" stroke-width="3.3" fill="none" stroke-linecap="round"/><path d="M399.9,147.5 Q433,144.5 459.3,124.4" stroke-width="3.5" fill="none" stroke-linecap="round"/><path d="M362.1,184.5 Q392.7,207.2 428.9,219.2" stroke-width="4.8" fill="none" stroke-linecap="round"/><path d="M428.9,219.2 Q464.6,220.8 499.9,226.3" stroke-width="3.6" fill="none" stroke-linecap="round"/><path d="M428.9,219.2 Q448.3,247.9 478.7,264.6" stroke-width="3.4" fill="none" stroke-linecap="round"/><path d="M226.3,183.2 Q241.8,209.6 258.9,235" stroke-width="7.7" fill="none" stroke-linecap="round"/><path d="M258.9,235 Q299.4,237 330.9,262.4" stroke-width="5.7" fill="none" stroke-linecap="round"/><path d="M330.9,262.4 Q365.3,283.6 400,304.4" stroke-width="4.2" fill="none" stroke-linecap="round"/><path d="M400,304.4 Q425,302.7 447.5,313.7" stroke-width="3.2" fill="none" stroke-linecap="round"/><path d="M400,304.4 Q412.6,332.2 423.6,360.6" stroke-width="3.1" fill="none" stroke-linecap="round"/><path d="M258.9,235 Q249.6,270.7 258.2,306.7" stroke-width="5.5" fill="none" stroke-linecap="round"/><path d="M258.2,306.7 Q272.4,339.6 279.6,374.6" stroke-width="4" fill="none" stroke-linecap="round"/><path d="M279.6,374.6 Q276,399 287.9,420.5" stroke-width="3" fill="none" stroke-linecap="round"/><path d="M130.5,142 Q156,176.3 161.6,218.8" stroke-width="10" fill="none" stroke-linecap="round"/><path d="M161.6,218.8 Q146.9,268 164.6,316.2" stroke-width="7.7" fill="none" stroke-linecap="round"/><path d="M164.6,316.2 Q189.8,353.7 220.9,386.6" stroke-width="5.1" fill="none" stroke-linecap="round"/><path d="M220.9,386.6 Q256.3,393.1 287.1,411.8" stroke-width="4" fill="none" stroke-linecap="round"/><path d="M287.1,411.8 Q320.6,413.1 353.9,408.6" stroke-width="2.9" fill="none" stroke-linecap="round"/><path d="M287.1,411.8 Q312,433.9 326.6,463.7" stroke-width="3.1" fill="none" stroke-linecap="round"/><path d="M164.6,316.2 Q153.9,344.8 139.5,371.7" stroke-width="6" fill="none" stroke-linecap="round"/><path d="M139.5,371.7 Q143.8,399.8 146.2,428.2" stroke-width="4.2" fill="none" stroke-linecap="round"/><path d="M146.2,428.2 Q143.8,451.3 148.6,474" stroke-width="3" fill="none" stroke-linecap="round"/><path d="M139.5,371.7 Q115.8,389.7 91,406.2" stroke-width="4.1" fill="none" stroke-linecap="round"/><path d="M91,406.2 Q69,424.1 41.1,428.8" stroke-width="3.2" fill="none" stroke-linecap="round"/></g></svg>
